<svg width="64" height="84" viewBox="0 0 64 84" fill="none" xmlns="http://www.w3.org/2000/svg">
<path d="M46.583 11.1679H41.4491C40.6478 11.1679 39.9969 11.8031 39.9969 12.585V19.5743L39.6734 19.8062C39.667 19.4979 39.6506 19.1994 39.5975 18.933C39.5128 18.5087 39.0351 17.6429 38.4562 17.9735C37.8774 18.3052 38.0139 19.398 38.0252 19.9258C38.0341 20.2946 38.0252 20.6523 38.0063 21.005L37.0799 21.6722V15.3933C37.0799 14.472 36.3127 13.7234 35.3686 13.7234H34.3044L34.3006 0.976909C34.1552 0.629109 33.0443 0.359009 31.6767 0.359009C30.3092 0.359009 29.1982 0.629109 29.0516 0.976909L29.044 13.7234H27.9028C26.9586 13.7234 26.1915 14.472 26.1915 15.3933V21.7549L25.2916 21.1074C25.2789 20.7953 25.2751 20.4796 25.284 20.1565C25.2991 19.6311 25.4306 18.5346 24.8543 18.2041C24.2476 17.8575 23.8431 18.7603 23.713 19.1636C23.6397 19.3906 23.6081 19.6323 23.5904 19.8802L23.3464 19.7038V12.5838C23.3464 11.8019 22.6955 11.1667 21.8942 11.1667H16.7603C15.959 11.1667 15.3081 11.8019 15.3081 12.5838V33.1126C15.3081 33.8946 15.959 34.5297 16.7603 34.5297H21.8942C22.6955 34.5297 23.3464 33.8946 23.3464 33.1126V23.9625C23.8773 23.4852 24.1098 22.9401 24.1945 22.1619C24.2122 21.9954 24.2097 21.8239 24.2109 21.6537L24.8163 22.0903C24.8366 22.3814 24.8492 22.6712 24.8808 22.9648C24.9996 24.0439 25.5304 24.7926 26.1915 25.6164V35.636C26.1915 36.5573 26.9586 37.306 27.9028 37.306H29.0301L29.0049 83.1293H34.3296L34.3132 37.3047H35.3698C36.3127 37.3047 37.0811 36.5561 37.0811 35.6348V25.4351C37.6398 24.7457 38.2666 24.0291 38.3804 23.1251C38.4284 22.7391 38.4638 22.3567 38.503 21.9744L39.1046 21.5415C39.1046 21.5489 39.1046 21.5551 39.1046 21.5625C39.1084 22.4788 39.3549 23.1757 39.9982 23.7467V33.1114C39.9982 33.8933 40.6503 34.5285 41.4504 34.5285H46.5843C47.3856 34.5285 48.0365 33.8933 48.0365 33.1114V12.585C48.0352 11.8031 47.3843 11.1679 46.583 11.1679ZM22.0977 33.1139C22.0977 33.2212 22.0042 33.3124 21.8942 33.3124H16.7603C16.6504 33.3124 16.5568 33.2212 16.5568 33.1139V12.585C16.5568 12.4777 16.6504 12.3865 16.7603 12.3865H21.8942C22.0042 12.3865 22.0977 12.4777 22.0977 12.585V33.1139ZM23.3464 22.9635V21.0321L23.5954 21.211C23.6156 21.8338 23.6005 22.4443 23.3464 22.9635ZM24.2248 20.3378C24.3045 19.7211 24.5888 18.4767 24.6533 19.4103C24.6836 19.8407 24.7026 20.2687 24.7228 20.6967L24.2248 20.3378ZM26.1927 24.5027C25.835 23.8836 25.6012 23.2349 25.4622 22.5553L26.1927 23.0807V24.5027ZM35.6087 35.636C35.6087 35.7631 35.4987 35.8691 35.3698 35.8691H27.904C27.7738 35.8691 27.6651 35.7618 27.6651 35.636V15.3933C27.6651 15.2663 27.7751 15.1602 27.904 15.1602H35.3698C35.5 15.1602 35.6087 15.2675 35.6087 15.3933V35.636V35.636ZM37.0799 24.3412V23.0005L37.8154 22.4714C37.6714 23.1214 37.435 23.7442 37.0799 24.3412ZM38.6041 20.5746C38.6243 20.1972 38.6521 19.821 38.6509 19.4399C38.6458 18.135 39.0629 19.3918 39.1008 20.0183C39.1046 20.0837 39.1021 20.1503 39.1033 20.2157L38.6041 20.5746ZM39.9969 22.7107C39.7783 22.2445 39.6999 21.6981 39.686 21.1246L39.9969 20.9002V22.7107ZM46.7865 33.1139C46.7865 33.2212 46.693 33.3124 46.583 33.3124H41.4491C41.3392 33.3124 41.2456 33.2212 41.2456 33.1139V12.585C41.2456 12.4777 41.3392 12.3865 41.4491 12.3865H46.583C46.693 12.3865 46.7865 12.4777 46.7865 12.585V33.1139Z" fill="#1938A7"/>
<path fill-rule="evenodd" clip-rule="evenodd" d="M60.4 26.3774C60.3886 26.3651 60.3785 26.3441 60.3659 26.3417C60.0714 26.2886 59.8881 26.1086 59.8035 25.8409C59.7491 25.6732 59.7971 25.4968 59.9071 25.3673C60.0398 25.2095 60.2155 25.0849 60.3596 24.9357C60.5618 24.726 60.7615 24.5139 60.946 24.2882C61.1407 24.0489 61.3201 23.7973 61.4958 23.5432C61.5792 23.4211 61.6412 23.2855 61.7069 23.1535C61.8156 22.9352 61.9243 22.7157 62.0241 22.4937C62.0696 22.3925 62.1012 22.2865 62.1328 22.1816C62.1783 22.0312 62.2188 21.8782 62.263 21.7265C62.3755 21.3343 62.4374 20.9335 62.45 20.5265C62.4589 20.2922 62.4905 20.0566 62.4791 19.8235C62.4639 19.509 62.4298 19.1945 62.3805 18.8825C62.3413 18.6383 62.2782 18.3953 62.2061 18.1573C62.1341 17.9217 62.0532 17.6874 61.9508 17.4629C61.8168 17.1681 61.674 16.8721 61.5034 16.5959C61.3353 16.3233 61.1457 16.0606 60.9359 15.8176C60.6781 15.5192 60.4013 15.233 60.1131 14.9642C59.9716 14.831 59.8477 14.6965 59.7984 14.5115C59.7554 14.345 59.8363 14.1193 59.9791 13.9775C60.0992 13.8566 60.2534 13.8085 60.4013 13.7419C60.5125 13.7419 60.625 13.7419 60.7362 13.7419C60.8525 13.8036 60.9814 13.848 61.08 13.9294C61.2645 14.0836 61.4389 14.2513 61.6045 14.4252C61.7764 14.604 61.9331 14.7952 62.0949 14.9827C62.1556 15.0542 62.2124 15.1307 62.268 15.2059C62.3755 15.3502 62.4854 15.4933 62.5878 15.6425C62.6662 15.756 62.7332 15.8768 62.8027 15.9965C62.9063 16.1765 63.015 16.3566 63.1073 16.5416C63.1907 16.713 63.2501 16.8956 63.3322 17.0682C63.4738 17.3716 63.5724 17.6898 63.6545 18.013C63.7228 18.2843 63.7797 18.5593 63.8264 18.8356C63.8681 19.0786 63.8896 19.3252 63.9199 19.5707C63.9199 19.8963 63.9199 20.2231 63.9199 20.5487C63.8997 20.677 63.8732 20.804 63.8631 20.9323C63.8378 21.2862 63.7809 21.634 63.6823 21.9769C63.6343 22.1471 63.5939 22.3185 63.5458 22.4887C63.5155 22.5936 63.4826 22.6984 63.4422 22.8008C63.3676 22.987 63.2905 23.172 63.2084 23.3558C63.1452 23.4988 63.0807 23.6419 63.0062 23.7788C62.9063 23.9613 62.7989 24.1402 62.6864 24.3165C62.584 24.4769 62.4728 24.6323 62.3603 24.7864C62.2706 24.9098 62.177 25.0306 62.0797 25.1478C61.947 25.3094 61.8143 25.4734 61.669 25.6251C61.5186 25.783 61.353 25.926 61.195 26.0777C61.0711 26.1961 60.9536 26.3207 60.7665 26.3429C60.7552 26.3441 60.7451 26.3676 60.7362 26.3799C60.6237 26.3774 60.5112 26.3774 60.4 26.3774Z" fill="#1938A7"/>
<path fill-rule="evenodd" clip-rule="evenodd" d="M61.1065 19.9272C61.08 20.2762 61.0775 20.5488 61.037 20.8164C60.9991 21.0742 60.9372 21.3307 60.8601 21.5811C60.7893 21.8142 60.6958 22.0423 60.5934 22.2643C60.5125 22.4407 60.4038 22.606 60.3014 22.7737C60.2129 22.9205 60.1232 23.066 60.0208 23.2041C59.7908 23.5125 59.5305 23.7924 59.241 24.0502C59.0995 24.176 58.9579 24.2981 58.7734 24.34C58.6584 24.3659 58.5282 24.3684 58.4144 24.3425C58.2211 24.2981 58.053 24.2044 57.9127 24.0527C57.7345 23.859 57.7383 23.5174 57.9291 23.3423C58.0985 23.1881 58.2741 23.0401 58.4384 22.881C58.556 22.7688 58.6672 22.6479 58.7658 22.5196C58.8846 22.3667 58.9933 22.2064 59.0982 22.0436C59.1664 21.935 59.2259 21.8191 59.2789 21.7019C59.4015 21.4318 59.5039 21.1556 59.5671 20.8645C59.6644 20.4082 59.6859 19.9481 59.6265 19.4881C59.5936 19.2266 59.5279 18.9676 59.447 18.716C59.3826 18.5125 59.2853 18.3164 59.1841 18.1253C59.0969 17.9612 58.9908 17.8046 58.8795 17.6541C58.7569 17.4889 58.6293 17.3248 58.4865 17.1756C58.3563 17.0399 58.2084 16.9191 58.0605 16.7994C57.8419 16.6218 57.7319 16.4331 57.804 16.1569C57.8482 15.9817 57.9834 15.8744 58.1275 15.7807C58.3512 15.6352 58.6028 15.6241 58.8479 15.6931C58.968 15.7264 59.0843 15.8078 59.1778 15.8917C59.3649 16.0594 59.5444 16.2383 59.7124 16.4257C59.854 16.5836 59.9791 16.7563 60.1055 16.9277C60.213 17.0769 60.3204 17.2274 60.4114 17.3865C60.4986 17.537 60.577 17.6936 60.6389 17.8527C60.7387 18.1105 60.8272 18.3719 60.9106 18.6359C60.9549 18.7802 60.9865 18.9294 61.0054 19.0786C61.0459 19.3857 61.0787 19.6941 61.1065 19.9272Z" fill="#1938A7"/>
<path fill-rule="evenodd" clip-rule="evenodd" d="M58.2476 20.0418C58.2047 20.3119 58.1794 20.598 58.1099 20.8731C58.0492 21.1123 57.9544 21.3442 57.8318 21.5662C57.7118 21.782 57.5816 21.988 57.4248 22.1742C57.3111 22.3099 57.1986 22.4591 57.0242 22.5307C56.8384 22.6071 56.6438 22.5997 56.4567 22.5455C56.2848 22.4949 56.1534 22.3876 56.0409 22.2495C55.912 22.0928 55.9094 21.9165 55.9676 21.745C56.0055 21.634 56.0826 21.528 56.1647 21.4416C56.3316 21.2677 56.4693 21.0815 56.5806 20.8694C56.712 20.619 56.7676 20.3551 56.7765 20.085C56.7853 19.7927 56.7537 19.4967 56.6261 19.2241C56.511 18.9811 56.3594 18.7665 56.1673 18.5704C55.9979 18.3978 55.8804 18.1906 55.9511 17.9291C55.9941 17.7712 56.1142 17.6726 56.2317 17.5739C56.3632 17.4617 56.5376 17.4259 56.6994 17.4185C56.918 17.4074 57.1228 17.4876 57.2669 17.6652C57.4337 17.8699 57.6081 18.0709 57.7522 18.2892C57.8558 18.4471 57.9279 18.6296 57.9923 18.8085C58.0631 18.9996 58.1213 19.197 58.1617 19.3955C58.2034 19.6015 58.2186 19.8149 58.2476 20.0418Z" fill="#1938A7"/>
<path d="M54.701 20.8829C55.1917 20.8829 55.5895 20.5119 55.5895 20.0541C55.5895 19.5964 55.1917 19.2253 54.701 19.2253C54.2103 19.2253 53.8125 19.5964 53.8125 20.0541C53.8125 20.5119 54.2103 20.8829 54.701 20.8829Z" fill="#1938A7"/>
<path fill-rule="evenodd" clip-rule="evenodd" d="M3.51993 26.4736C3.53131 26.4613 3.54142 26.4403 3.55406 26.4379C3.84854 26.3848 4.03181 26.2048 4.11649 25.9371C4.17083 25.7694 4.12281 25.593 4.01285 25.4635C3.88014 25.3057 3.70446 25.1811 3.56038 25.0319C3.35815 24.8222 3.15846 24.6101 2.97393 24.3844C2.77929 24.1451 2.59982 23.8935 2.42414 23.6394C2.34072 23.5173 2.27879 23.3817 2.21307 23.2497C2.10438 23.0314 1.99568 22.8119 1.89583 22.5899C1.85033 22.4887 1.81874 22.3827 1.78714 22.2778C1.74164 22.1274 1.70119 21.9744 1.65696 21.8227C1.54447 21.4305 1.48254 21.0297 1.4699 20.6227C1.46106 20.3884 1.42946 20.1528 1.44083 19.9197C1.456 19.6052 1.49013 19.2907 1.53942 18.9787C1.5786 18.7345 1.64179 18.4915 1.71383 18.2535C1.78588 18.0179 1.86676 17.7836 1.96914 17.5591C2.10311 17.2643 2.24593 16.9683 2.41656 16.6921C2.58465 16.4195 2.77424 16.1568 2.98404 15.9138C3.24188 15.6154 3.51867 15.3292 3.80683 15.0604C3.94839 14.9272 4.07225 14.7927 4.12154 14.6077C4.16451 14.4412 4.08363 14.2155 3.94081 14.0737C3.82074 13.9528 3.66654 13.9047 3.51867 13.8381C3.40745 13.8381 3.29496 13.8381 3.18374 13.8381C3.06746 13.8998 2.93854 13.9442 2.83996 14.0256C2.65543 14.1798 2.48101 14.3475 2.31544 14.5214C2.14356 14.7002 1.98683 14.8914 1.82506 15.0789C1.76439 15.1504 1.70751 15.2269 1.6519 15.3021C1.54447 15.4464 1.43451 15.5895 1.33214 15.7387C1.25378 15.8522 1.18679 15.973 1.11728 16.0927C1.01364 16.2727 0.904944 16.4528 0.81268 16.6378C0.729263 16.8092 0.669861 16.9918 0.587709 17.1644C0.446153 17.4678 0.34757 17.786 0.265417 18.1092C0.197167 18.3805 0.140292 18.6555 0.0935282 18.9318C0.0518199 19.1748 0.0303333 19.4214 0 19.6669C0 19.9925 0 20.3193 0 20.6449C0.0202222 20.7732 0.046764 20.9002 0.0568751 21.0285C0.0821529 21.3824 0.139027 21.7302 0.237611 22.0731C0.285639 22.2433 0.326083 22.4147 0.374111 22.5849C0.404444 22.6898 0.437306 22.7946 0.47775 22.897C0.55232 23.0832 0.629416 23.2682 0.711569 23.452C0.774764 23.595 0.839222 23.7381 0.913791 23.875C1.01364 24.0575 1.12107 24.2364 1.23356 24.4127C1.33593 24.5731 1.44715 24.7285 1.55964 24.8826C1.64938 25.006 1.7429 25.1268 1.84022 25.244C1.97293 25.4056 2.10564 25.5696 2.25099 25.7213C2.40139 25.8792 2.56696 26.0222 2.72494 26.1739C2.84881 26.2923 2.96635 26.4169 3.1534 26.4391C3.16478 26.4403 3.17489 26.4638 3.18374 26.4761C3.29622 26.4736 3.40871 26.4736 3.51993 26.4736Z" fill="#1938A7"/>
<path fill-rule="evenodd" clip-rule="evenodd" d="M2.81348 20.0234C2.84002 20.3724 2.84255 20.645 2.88299 20.9126C2.92091 21.1704 2.98284 21.4269 3.05993 21.6773C3.13071 21.9104 3.22424 22.1385 3.32662 22.3605C3.4075 22.5369 3.5162 22.7022 3.61857 22.8699C3.70705 23.0167 3.79678 23.1622 3.89916 23.3003C4.12918 23.6087 4.38955 23.8886 4.67898 24.1464C4.82053 24.2722 4.96209 24.3943 5.14661 24.4362C5.26163 24.4621 5.39181 24.4646 5.50556 24.4387C5.69893 24.3943 5.86703 24.3006 6.00732 24.1489C6.18553 23.9552 6.18174 23.6136 5.99089 23.4385C5.82153 23.2843 5.64585 23.1363 5.48155 22.9772C5.364 22.865 5.25278 22.7441 5.1542 22.6158C5.03539 22.4629 4.9267 22.3026 4.8218 22.1398C4.75355 22.0312 4.69414 21.9153 4.64106 21.7981C4.51846 21.528 4.41609 21.2518 4.35289 20.9607C4.25557 20.5044 4.23409 20.0443 4.29349 19.5843C4.32635 19.3228 4.39207 19.0638 4.47296 18.8122C4.53742 18.6087 4.63474 18.4126 4.73585 18.2215C4.82306 18.0574 4.92923 17.9008 5.04045 17.7503C5.16305 17.5851 5.2907 17.421 5.43352 17.2718C5.5637 17.1361 5.71157 17.0153 5.85945 16.8956C6.0781 16.718 6.18806 16.5293 6.11602 16.2531C6.07178 16.0779 5.93655 15.9706 5.79246 15.8769C5.56875 15.7314 5.31724 15.7203 5.07205 15.7893C4.95198 15.8226 4.8357 15.904 4.74217 15.9879C4.55512 16.1556 4.37564 16.3345 4.20755 16.5219C4.06599 16.6798 3.94086 16.8525 3.81448 17.0239C3.70705 17.1731 3.59962 17.3236 3.50862 17.4827C3.42141 17.6332 3.34305 17.7898 3.28112 17.9489C3.18127 18.2067 3.0928 18.4681 3.00938 18.7321C2.96514 18.8764 2.93355 19.0256 2.91459 19.1748C2.87414 19.4819 2.84128 19.7903 2.81348 20.0234Z" fill="#1938A7"/>
<path fill-rule="evenodd" clip-rule="evenodd" d="M5.67236 20.138C5.71534 20.4081 5.74061 20.6942 5.81013 20.9693C5.87079 21.2085 5.96559 21.4404 6.08818 21.6624C6.20825 21.8782 6.33843 22.0842 6.49515 22.2704C6.6089 22.4061 6.72139 22.5553 6.8958 22.6268C7.0816 22.7033 7.27624 22.6959 7.46329 22.6417C7.63518 22.5911 7.76662 22.4838 7.87911 22.3457C8.00802 22.189 8.01055 22.0127 7.95241 21.8412C7.9145 21.7302 7.8374 21.6242 7.75525 21.5378C7.58841 21.3639 7.45065 21.1777 7.33943 20.9655C7.20798 20.7152 7.15237 20.4513 7.14353 20.1811C7.13468 19.8888 7.16628 19.5928 7.29393 19.3203C7.40894 19.0773 7.56061 18.8627 7.75272 18.6666C7.92208 18.4939 8.03962 18.2868 7.96884 18.0253C7.92587 17.8674 7.8058 17.7688 7.68826 17.6701C7.55682 17.5579 7.3824 17.5221 7.22062 17.5147C7.00197 17.5036 6.79722 17.5837 6.65314 17.7613C6.48631 17.9661 6.31189 18.1671 6.16781 18.3854C6.06417 18.5433 5.99213 18.7258 5.92767 18.9046C5.85689 19.0958 5.79875 19.2931 5.75831 19.4917C5.7166 19.6989 5.70143 19.9111 5.67236 20.138Z" fill="#1938A7"/>
<path d="M9.21884 20.9791C9.70955 20.9791 10.1073 20.6081 10.1073 20.1503C10.1073 19.6926 9.70955 19.3215 9.21884 19.3215C8.72812 19.3215 8.33032 19.6926 8.33032 20.1503C8.33032 20.6081 8.72812 20.9791 9.21884 20.9791Z" fill="#1938A7"/>
</svg>
