<svg width="76" height="75" viewBox="0 0 76 75" fill="none" xmlns="http://www.w3.org/2000/svg">
<path d="M64.5515 31.6473C64.3163 30.7218 63.8461 29.6808 63.0231 28.9867C61.2596 27.2516 58.9082 26.9046 57.4974 28.0613C57.2623 27.5986 57.0272 27.2516 56.792 26.9046L61.2596 22.5089C62.9055 20.8894 62.4353 17.9975 60.2015 15.7997C57.9677 13.6019 55.0285 13.2548 53.3826 14.7586L49.1501 19.1543C48.7974 18.9229 48.4447 18.6916 47.9745 18.4602C49.1501 17.0721 48.7974 14.7586 47.0339 13.1392C45.2704 11.404 42.8015 11.057 41.3907 12.3294L32.5731 21.0051C29.5163 20.4267 27.0474 20.8894 25.4015 22.5089L20.2285 27.5986L2.4758 45.1813C0.477156 47.1478 0.124453 50.5024 1.65283 54.551C3.06364 58.3683 5.7677 62.417 9.41229 66.0029C13.0569 69.5889 17.1717 72.2494 21.0515 73.6375C22.6974 74.2159 24.3434 74.5629 25.7542 74.5629C27.6353 74.5629 29.2812 73.9845 30.4569 72.9435C30.4569 72.9435 30.4569 72.9435 30.5745 72.9435L53.5001 50.3867C55.1461 48.7673 55.6163 46.3381 55.0285 43.3305L63.8461 34.6548C64.5515 33.7294 64.7866 32.6883 64.5515 31.6473ZM52.9123 18.6916C53.265 19.617 53.8528 20.5424 54.6758 21.3521C55.4988 22.1619 56.4393 22.7402 57.3799 22.9716L55.2636 25.0537C54.4407 24.4754 53.6177 24.1283 52.7947 23.897C52.5596 23.897 52.3245 23.7813 52.0893 23.7813C52.0893 23.55 52.0893 23.3186 51.9717 23.0873C51.8542 22.2775 51.3839 21.3521 50.7961 20.6581L52.9123 18.6916ZM53.1474 33.2667L44.4474 41.8267C43.2717 41.711 42.2136 41.2483 41.3907 40.4386C40.5677 39.6289 40.0974 38.5878 39.9799 37.431L48.5623 28.9867C48.915 29.9121 49.5028 30.8375 50.3258 31.6473C51.1488 32.457 52.2069 32.9197 53.1474 33.2667ZM38.3339 35.8116C37.1582 35.6959 36.1001 35.2332 35.2772 34.4235C34.4542 33.6137 33.9839 32.5727 33.8663 31.4159L42.5663 22.8559C42.919 23.7813 43.5069 24.7067 44.3299 25.5164C45.1528 26.3262 46.0934 26.9046 47.0339 27.1359L38.3339 35.8116ZM41.038 16.1467C41.2731 16.7251 41.7434 17.4191 42.3312 17.9975C42.6839 18.3446 43.1542 18.6916 43.5069 18.9229L43.3893 19.0386L34.6893 27.5986C33.6312 26.7889 33.0434 25.6321 32.8082 24.244L41.038 16.1467ZM28.8109 71.0927C27.4001 72.4808 24.8136 72.5964 21.6393 71.4397C18.1123 70.1672 14.3501 67.7381 10.9407 64.3835C7.64878 61.0289 5.06229 57.3273 3.76905 53.857C2.59337 50.7337 2.71094 48.1889 4.12175 46.9164L18.465 32.804C18.465 34.0764 18.8177 35.5802 19.4055 37.1997C20.8163 41.017 23.5204 45.0656 27.165 48.6516C30.8096 52.2375 34.9245 54.8981 38.8042 56.2862C40.4501 56.8645 41.8609 57.0959 43.2717 57.2116L28.8109 71.0927ZM46.6812 53.6256C46.6812 53.6256 46.5636 53.6256 46.6812 53.6256C45.2704 55.0137 42.6839 55.1294 39.5096 53.9727C35.9826 52.7002 32.2204 50.271 28.8109 46.9164C25.4015 43.5618 22.815 39.8602 21.6393 36.39C20.5812 33.2667 20.5812 30.8375 21.8745 29.4494L23.7555 27.5986C23.8731 32.11 27.0474 38.1251 32.338 43.3305C37.7461 48.6516 43.8596 51.6591 48.4447 51.7748L46.6812 53.6256ZM51.8542 42.9835C50.4434 42.8678 49.2677 42.1737 48.4447 41.1327L57.2623 32.457C57.4974 32.9197 57.8501 33.2667 58.2028 33.6137C58.7907 34.1921 59.3785 34.5391 60.0839 34.8862L51.8542 42.9835Z" fill="#0096FF"/>
<path d="M64.669 15.9154C64.7866 16.4938 65.2568 16.8408 65.8447 16.8408C65.9623 16.8408 66.0798 16.8408 66.0798 16.8408L72.0758 15.337C72.6636 15.2214 73.1339 14.5273 72.8987 13.9489C72.7812 13.3706 72.0758 12.9079 71.4879 13.1392L65.492 14.5273C64.9041 14.643 64.5514 15.2214 64.669 15.9154Z" fill="#0096FF"/>
<path d="M60.9068 10.8256C61.1419 10.9413 61.2595 10.9413 61.4946 10.9413C61.8474 10.9413 62.3176 10.71 62.5528 10.3629L65.7271 5.15752C66.0798 4.57914 65.8446 3.88509 65.3744 3.53806C64.7865 3.19103 64.0811 3.42238 63.7284 3.88509L60.5541 9.20617C60.2014 9.78455 60.319 10.4786 60.9068 10.8256Z" fill="#0096FF"/>
<path d="M53.1473 8.9748C53.2649 9.55317 53.7352 9.9002 54.323 9.9002C54.4406 9.9002 54.5582 9.9002 54.5582 9.9002C55.146 9.78453 55.6163 9.09047 55.3811 8.51209L53.8527 2.61264C53.7352 2.03426 53.0298 1.57155 52.4419 1.80291C51.8541 1.91858 51.3838 2.61264 51.619 3.19101L53.1473 8.9748Z" fill="#0096FF"/>
<path d="M66.3149 44.95C65.9622 44.3716 65.2568 44.1402 64.6689 44.4873C64.0811 44.8343 63.846 45.5283 64.1987 46.1067L66.7852 50.8494C67.0203 51.1965 67.373 51.4278 67.8433 51.4278C68.0784 51.4278 68.196 51.4278 68.4311 51.3121C69.0189 50.9651 69.2541 50.271 68.9014 49.6927L66.3149 44.95Z" fill="#0096FF"/>
<path d="M74.8975 41.0171L69.7246 39.5133C69.1367 39.2819 68.4313 39.6289 68.3138 40.323C68.0786 40.9014 68.4313 41.5954 69.1367 41.7111L74.3097 43.2149C74.4273 43.2149 74.5448 43.2149 74.6624 43.2149C75.1327 43.2149 75.6029 42.8679 75.8381 42.4052C75.8381 41.8268 75.4854 41.2484 74.8975 41.0171Z" fill="#0096FF"/>
<path d="M68.0784 33.3825C67.4905 33.7295 67.2554 34.4236 67.6081 35.0019C67.8432 35.349 68.1959 35.5803 68.6662 35.5803C68.9013 35.5803 69.0189 35.5803 69.254 35.4646L74.0743 32.9198C74.6621 32.5727 74.8973 31.8787 74.5446 31.3003C74.1919 30.7219 73.4865 30.4906 72.8986 30.8376L68.0784 33.3825Z" fill="#0096FF"/>
<path d="M41.6257 8.1651C41.7433 8.1651 41.8609 8.1651 41.9784 8.1651C42.4487 8.1651 42.919 7.81807 43.1541 7.35537L44.6825 2.26564C44.9176 1.68726 44.5649 0.993205 43.8595 0.877529C43.2717 0.646178 42.5663 0.993205 42.4487 1.68726L40.9203 6.77699C40.6852 7.35537 41.0379 8.04942 41.6257 8.1651Z" fill="#0096FF"/>
<path d="M34.5718 8.28083C34.8069 8.62785 35.1596 8.85921 35.6299 8.85921C35.865 8.85921 35.9826 8.8592 36.2177 8.74353C36.8056 8.3965 37.0407 7.70245 36.688 7.12407L34.1015 2.38137C33.7488 1.80299 33.0434 1.57164 32.4556 1.91866C31.8677 2.26569 31.6326 2.95975 31.9853 3.53812L34.5718 8.28083Z" fill="#0096FF"/>
<path d="M26.107 12.2138L31.2799 13.7176C31.3975 13.7176 31.5151 13.7176 31.6326 13.7176C32.1029 13.7176 32.5732 13.3706 32.8083 12.9078C33.0434 12.3295 32.6907 11.6354 31.9853 11.5197L26.8124 10.016C26.2245 9.78461 25.5191 10.1316 25.4016 10.8257C25.0488 11.4041 25.4016 11.9824 26.107 12.2138Z" fill="#0096FF"/>
</svg>
