<svg width="91" height="69" viewBox="0 0 91 69" fill="none" xmlns="http://www.w3.org/2000/svg">
<path d="M33.9139 22.0682C30.9189 18.2502 32.1609 13.7572 33.6839 11.3632C37.6409 5.17519 44.6449 4.45519 50.0249 5.01219C54.2029 5.44719 54.9409 4.21819 51.0879 2.54519C43.0179 -0.962813 31.2259 -1.42081 23.3649 6.43718L12.7749 17.0292C12.1809 17.6232 12.1939 18.5982 12.5339 19.3692C12.9759 20.3632 12.1959 21.7382 11.1719 22.7632C10.1489 23.7842 8.77487 24.5662 7.77887 24.1232C7.00887 23.7832 6.03387 23.7692 5.43987 24.3642L0.886875 28.9152C-0.296125 30.1002 -0.295125 32.0342 0.886875 33.2172L6.95487 39.2852C8.13787 40.4692 10.0749 40.4692 11.2559 39.2852L15.8089 34.7342C16.4019 34.1392 16.3909 33.1632 16.0509 32.3942C15.6089 31.3952 16.3889 30.0252 17.4109 29.0002C19.0349 27.3762 22.7219 26.8482 26.0779 29.9012L33.9139 22.0682Z" fill="#0096FF" fill-opacity="0.75"/>
<path d="M37.1089 25.2072L29.1719 33.1442L61.1559 67.3512C62.5289 68.8412 64.8039 68.8842 66.2359 67.4532L71.4209 62.2682C72.8539 60.8352 72.8069 58.5622 71.3179 57.1882L37.1089 25.2072Z" fill="#0096FF" fill-opacity="0.75"/>
<path d="M24.394 54.3532C21.159 57.5872 21.159 62.8332 24.394 66.0712C27.631 69.3072 32.877 69.3072 36.112 66.0712L36.113 66.0732L46.381 54.8842L35.958 43.7382L24.394 54.3532ZM32.701 62.6602C31.351 64.0082 29.159 64.0082 27.808 62.6602C26.459 61.3072 26.457 59.1162 27.808 57.7652C29.158 56.4132 31.351 56.4132 32.701 57.7632C34.051 59.1162 34.051 61.3072 32.701 62.6602Z" fill="#0096FF" fill-opacity="0.75"/>
<path d="M87.729 18.9582L84.432 20.1302L78.526 22.2302C73.667 23.9592 71.725 21.6892 70.576 18.4492L70.343 17.7962C69.191 14.5562 69.264 11.5702 74.125 9.84222L79.946 7.77322L83.16 6.63022C84.593 6.12122 84.834 4.87922 83.692 3.87022C83.692 3.87022 82.198 2.54822 79.996 1.58222C77.87 0.648225 75.522 0.131226 73.053 0.131226C63.5 0.131226 55.755 7.87622 55.755 17.4312C55.756 20.3882 56.54 22.3872 56.54 22.3872C57.235 24.1572 55.671 25.6712 54.257 26.9452L48.228 32.4812L58.302 41.9012L63.522 36.2142C64.794 34.8012 66.307 33.2372 68.078 33.9372C68.078 33.9372 70.088 34.7312 73.054 34.7302C77.906 34.7302 82.284 32.7362 85.424 29.5222C86.905 28.0042 88.111 26.2152 88.96 24.2392C89.778 22.3222 89.98 20.7762 89.98 20.7762C90.175 19.2632 89.162 18.4482 87.729 18.9582Z" fill="#0096FF" fill-opacity="0.75"/>
</svg>
