<svg width="81" height="91" viewBox="0 0 81 91" fill="none" xmlns="http://www.w3.org/2000/svg">
<path d="M62.7717 87.4613V49.6C63.2384 49.4347 63.6717 49.2363 64.1051 49.0379C65.2051 48.4427 66.2051 47.6821 67.0717 46.8224C68.2384 45.632 69.2051 44.2432 70.0051 42.8213H72.1717V40.5397H62.8051V34.3563C64.7384 36.2411 68.2384 37.5307 72.2051 37.5307V36.6048C67.9384 36.6048 64.2717 35.0837 62.8051 32.9675V30.9173H62.1051H61.1717H60.4717V32.9675C59.0051 35.0837 55.3384 36.6048 51.0717 36.6048V37.5307C55.0384 37.5307 58.5384 36.2741 60.4717 34.3563V40.5397H51.1051V42.8213H52.8717C52.1384 43.8133 51.3384 44.7061 50.4384 45.4997C49.6384 44.8053 48.8717 44.0448 48.1384 43.2181C46.5384 41.4325 45.1384 39.4485 43.9717 37.3323C42.7717 35.2491 41.8051 33.0336 41.0051 30.7851C39.5717 26.7179 38.8384 22.3861 38.8717 18.1205H40.3051V14.6485H26.0051V5.22453C28.9717 8.1344 34.2717 10.0523 40.3717 10.0523V8.66347C33.8384 8.66347 28.2717 6.3488 26.0051 3.14133V0H24.9384H23.5384H22.4717V3.14133C20.2384 6.38187 14.6384 8.66347 8.10508 8.66347V10.0523C14.1717 10.0523 19.5051 8.10133 22.4717 5.22453V14.6485H8.17174V18.1205H9.73841L9.83841 18.848C9.87174 19.1787 9.90508 19.5424 9.97174 19.8731L10.1384 20.8981C10.2717 21.5925 10.3717 22.2869 10.5051 22.9483L11.0051 24.9653C11.7384 27.6437 12.6717 30.2891 13.9051 32.8021C16.0051 37.0016 18.9051 40.8373 22.5051 43.8795V87.1307C21.8717 87.1637 21.2051 87.1968 20.5717 87.2629C13.9384 87.7259 7.33841 88.3541 0.705078 89.5776V89.9413L10.6384 90.0405L20.5717 90.0736L40.4384 90.1398L60.3051 90.0736L70.2384 90.0405L80.1717 89.9413V89.5776C74.3384 88.5195 68.5717 87.8912 62.7717 87.4613ZM69.9051 42.7883C69.0717 44.1771 68.0717 45.4997 66.9051 46.624C66.0384 47.4507 65.0384 48.1781 63.9384 48.7072C63.5717 48.8725 63.1717 49.0379 62.7717 49.1701V42.7883H69.9051ZM52.9384 42.7883H60.5051V49.6C59.3051 49.6661 58.1051 49.5339 56.9384 49.2032C55.7717 48.8725 54.6717 48.4096 53.6384 47.7813C52.5384 47.1531 51.5051 46.3925 50.5384 45.5659C51.4384 44.7392 52.2384 43.8133 52.9384 42.7883ZM36.9051 18.1205C37.0051 22.6507 37.9717 27.1147 39.5717 31.2811C40.4717 33.5957 41.5717 35.8443 42.8717 37.9605C44.1717 40.0768 45.6717 42.0608 47.3717 43.8795C48.1051 44.64 48.9051 45.3675 49.7051 46.0619C49.1717 46.4917 48.6051 46.8885 48.0051 47.2523C47.8717 47.3515 47.7051 47.4507 47.5717 47.5168L47.1051 47.7483L46.2051 48.2112C45.9051 48.3435 45.5717 48.4427 45.2384 48.5749C44.9051 48.7072 44.6051 48.8395 44.2717 48.9056C43.6051 49.0709 42.9717 49.2693 42.2717 49.3685C41.9384 49.4347 41.6051 49.5008 41.2717 49.5339L40.2717 49.6L39.7717 49.6331C39.6051 49.6331 39.4384 49.6331 39.2717 49.6331H38.2384C37.9051 49.6331 37.5717 49.5669 37.2384 49.5669C36.9051 49.5339 36.5717 49.5008 36.2384 49.4677L35.2384 49.2693C34.9051 49.2032 34.5717 49.1701 34.2384 49.0709C33.5717 48.8725 32.9051 48.7403 32.3051 48.5088C30.0717 47.7483 27.9384 46.6571 26.0051 45.3344V18.1205H36.9051ZM15.2384 32.1739C14.1384 29.7269 13.3051 27.1808 12.6717 24.5685L12.2717 22.6176C12.1384 21.9563 12.0717 21.2949 11.9717 20.6336L11.8384 19.6416C11.8051 19.3109 11.7717 18.9803 11.7384 18.6496L11.7051 18.1536H22.5051V42.4576C19.4384 39.5147 17.0051 35.9765 15.2384 32.1739ZM60.2717 87.2629C53.6384 86.8331 47.0384 86.6347 40.4051 86.6347C35.6051 86.6347 30.8051 86.7339 26.0051 86.9653V46.4256C27.9051 47.5829 29.9384 48.5419 32.0717 49.1701C32.7384 49.4016 33.4051 49.5339 34.1051 49.6992C34.4384 49.7984 34.8051 49.8315 35.1384 49.8976L36.1717 50.0629C36.5051 50.096 36.8717 50.1291 37.2051 50.1291C37.5384 50.1291 37.9051 50.1952 38.2384 50.1952L39.2717 50.1621C39.4384 50.1621 39.6051 50.1621 39.8051 50.1621L40.3384 50.096L41.3717 49.9968C41.7051 49.9637 42.0717 49.8645 42.4051 49.7984C43.1051 49.6992 43.7717 49.4677 44.4051 49.2693C44.7384 49.1701 45.0717 49.0379 45.3717 48.9056C45.7051 48.7733 46.0051 48.6411 46.3384 48.5088L47.2717 48.0128L47.7384 47.7813C47.8717 47.6821 48.0384 47.5829 48.1717 47.4837C48.7717 47.0869 49.3384 46.6571 49.9051 46.1941C50.9717 47.0539 52.1051 47.8144 53.3051 48.4757C54.4051 49.0709 55.5717 49.5339 56.8051 49.8315C58.0051 50.1291 59.2717 50.2283 60.5051 50.1291V87.296C60.4051 87.296 60.3384 87.2629 60.2717 87.2629Z" fill="#0096FF"/>
</svg>
