<svg width="84" height="84" viewBox="0 0 84 84" fill="none" xmlns="http://www.w3.org/2000/svg">
<path d="M21.2783 27.0933C19.2964 25.2596 17.4801 22.6584 16.8133 19.6238C16.1549 16.6283 16.6999 13.526 17.6978 11.0361L19.4899 10.8774C18.6585 12.9552 18.7589 16.5011 19.3215 19.0624C19.8916 21.6562 21.4085 25.4071 23.0601 26.9356L21.2783 27.0933Z" fill="#0096FF"/>
<path d="M17.6727 36.1868C13.9081 32.7403 10.4187 27.82 9.15021 22.0413C7.89378 16.323 8.9763 10.4228 10.8967 5.71782L12.6805 5.56006C10.9293 9.84835 10.8568 16.1216 12.0155 21.401C13.1873 26.7342 16.0173 32.8897 19.4472 36.03L17.6727 36.1868Z" fill="#0096FF"/>
<path d="M13.0451 45.7943C7.52829 40.7247 2.7453 33.4148 0.878795 24.9208C-0.974695 16.4853 0.280804 7.86604 3.11172 0.942233L4.89453 0.7854C2.2338 7.29254 1.98828 16.2839 3.74505 24.2796C5.51391 32.33 9.63753 40.8731 14.8223 45.6375L13.0451 45.7943Z" fill="#0096FF"/>
<path d="M62.4308 27.0933C64.4126 25.2596 66.2289 22.6584 66.8958 19.6238C67.5542 16.6283 67.0092 13.526 66.0113 11.0361L64.2192 10.8774C65.0506 12.9552 64.9502 16.5011 64.3875 19.0624C63.8174 21.6562 62.3006 25.4071 60.6489 26.9356L62.4308 27.0933Z" fill="#0096FF"/>
<path d="M66.0364 36.1868C69.801 32.7403 73.2904 27.82 74.5589 22.0413C75.8153 16.323 74.7328 10.4228 72.8124 5.71782L71.0286 5.56006C72.7789 9.84835 72.8524 16.1216 71.6936 21.401C70.5218 26.7342 67.6918 32.8897 64.262 36.03L66.0364 36.1868Z" fill="#0096FF"/>
<path d="M70.6642 45.7943C76.1819 40.7247 80.9649 33.4148 82.8305 24.9208C84.6839 16.4853 83.4284 7.86604 80.5975 0.942233L78.8147 0.7854C81.4754 7.29254 81.721 16.2849 79.9642 24.2805C78.1953 32.3309 74.0717 40.8741 68.887 45.6384L70.6642 45.7943Z" fill="#0096FF"/>
<path d="M56.3691 38.1217L61.326 0.121009L56.9606 0.120081L55.7209 9.6228H47.0924L46.394 0.0773926H37.3599L36.6782 9.62373H27.9865L26.7468 0.121009L22.3813 0.121936L27.3382 38.1226H31.7037L30.4482 28.5011H35.3288L31.4033 83.4814H35.2265L41.9383 66.1668L48.6501 83.4805H52.4743L49.7438 46.031L49.7531 46.0088L48.4725 28.5011H53.2583L52.0028 38.1226L56.3691 38.1217ZM46.6246 33.5188L43.0645 19.3074L45.0185 11.4844L46.6246 33.5188ZM39.4087 2.29995H44.3489L44.5061 4.45291L41.9272 14.7695L39.2748 4.17915L39.4087 2.29995ZM40.7944 19.3083L37.1544 33.8807L38.7717 11.2338L40.7944 19.3083ZM30.1989 26.5774L28.2775 11.8463H36.5201L35.4683 26.5774H30.1989ZM33.7813 81.1122L35.951 50.7193L40.7572 63.1164L33.7813 81.1122ZM36.4327 45.8603L41.9309 23.8472L47.4458 45.8612L41.9402 60.067L36.4327 45.8603ZM50.0935 81.1029L43.1213 63.1164L47.8857 50.8251L50.0935 81.1029ZM48.333 26.5774L47.2551 11.8463H55.4317L53.5103 26.5774H48.333Z" fill="#0096FF"/>
</svg>
