<svg width="78" height="78" viewBox="0 0 78 78" fill="none" xmlns="http://www.w3.org/2000/svg">
<path d="M0.134601 5.39144L11.0504 45.4403C4.75856 46.6224 0.00415039 52.0586 0.00415039 58.5892C0.00415039 65.7698 5.75229 71.6282 12.9723 71.9611V75.8013C12.9723 76.5058 13.5529 77.0774 14.2695 77.0774H22.0504C22.767 77.0774 23.3479 76.5058 23.3476 75.8013V71.9766H54.4719V75.8013C54.4719 76.5058 55.0525 77.0774 55.7691 77.0774H63.551C64.2671 77.0774 64.8472 76.5054 64.847 75.8013V71.9611C72.0672 71.6286 77.8167 65.7698 77.8167 58.5892C77.8167 52.0586 73.0612 46.6224 66.7692 45.4403L77.685 5.39144C78.6547 0.0381276 71.5449 -1.17864 70.1687 3.41136L58.779 45.2013H40.2231V39.8413C41.7904 39.3015 42.9438 37.867 42.9442 36.1519C42.9442 33.9858 41.131 32.2028 38.9281 32.2033C36.7254 32.2033 34.9125 33.9868 34.9121 36.1524C34.9121 37.867 36.0636 39.2996 37.6297 39.8398L37.6279 45.2013H19.0394L7.64996 3.41136C6.16868 -1.50874 -1.01771 0.574471 0.13438 5.39144H0.134601ZM5.14511 4.07155L16.3557 45.2013H13.6701L2.64034 4.73125C2.41016 2.90296 4.70535 2.59985 5.14511 4.07155ZM75.1792 4.73125L64.1498 45.2013H61.4645L72.6744 4.07106C73.348 2.29867 75.517 3.33474 75.1792 4.73125V4.73125ZM18.762 16.4166C18.2598 16.9154 18.2619 17.7191 18.7669 18.2155C19.2717 18.7118 20.0894 18.7138 20.5967 18.2155C30.6563 8.32326 47.1672 8.32085 57.2233 18.2155C57.7299 18.7138 58.5513 18.7138 59.0579 18.2155C59.5645 17.7177 59.5645 16.9101 59.0578 16.4123C53.5276 10.9751 46.2189 8.25724 38.9106 8.25869C31.6023 8.25869 24.2938 10.9809 18.7622 16.4205L18.762 16.4166ZM24.5175 22.0745C23.9935 22.5694 23.9853 23.391 24.4993 23.896C25.0133 24.4005 25.8489 24.3924 26.352 23.896C33.4049 16.9597 44.4149 16.9587 51.4654 23.896C51.9695 24.4073 52.8018 24.4136 53.3138 23.896C53.8259 23.3924 53.8191 22.5742 53.2991 22.0783C49.2918 18.1389 44.1006 16.1699 38.9091 16.1713C33.7176 16.1713 28.526 18.1437 24.5177 22.0855L24.5175 22.0745ZM30.3072 27.5772C29.7897 28.0735 29.7845 28.8898 30.2959 29.3924C30.8071 29.8946 31.6374 29.8893 32.1419 29.3924C35.6196 25.9754 42.2398 25.9744 45.7157 29.3924C46.2203 29.9013 47.0506 29.9066 47.5618 29.3924C48.073 28.8898 48.0678 28.0735 47.5505 27.5772C45.2559 25.321 42.0928 24.1933 38.9295 24.1933C35.7663 24.1933 32.6029 25.3219 30.3076 27.5772H30.3072ZM38.9274 34.7539C39.7285 34.7539 40.3505 35.364 40.3503 36.1519C40.3503 36.9393 39.7272 37.5504 38.9262 37.5504C38.1251 37.5504 37.5044 36.9403 37.5045 36.1524C37.5047 35.365 38.1263 34.7544 38.9274 34.7539V34.7539ZM13.6203 47.752H64.1978C70.3273 47.752 75.2216 52.5631 75.2216 58.5892C75.2216 64.6152 70.3273 69.4274 64.1978 69.4274H13.6203C7.49088 69.4274 2.59656 64.6152 2.59656 58.5892C2.59656 52.5631 7.49088 47.752 13.6203 47.752V47.752ZM42.8 61.7764C42.0856 61.7764 41.5081 62.3494 41.5081 63.0515C41.5081 63.7541 42.0856 64.3241 42.8 64.327H47.9875C48.706 64.327 49.29 63.7579 49.29 63.0515C49.29 62.3455 48.706 61.7735 47.9875 61.7764H42.8ZM53.1747 61.7764C52.4562 61.7764 51.8778 62.345 51.8778 63.0515C51.8778 63.7579 52.4562 64.3261 53.1747 64.3261C53.8932 64.3261 54.4715 63.7579 54.4715 63.0515C54.4715 62.345 53.8932 61.7764 53.1747 61.7764ZM58.3622 61.7764C57.6437 61.7764 57.0653 62.345 57.0653 63.0515C57.0653 63.7579 57.6437 64.3261 58.3622 64.3261C59.0806 64.3261 59.659 63.7579 59.659 63.0515C59.659 62.345 59.0806 61.7764 58.3622 61.7764ZM63.5497 61.7764C62.8312 61.7764 62.2528 62.345 62.2528 63.0515C62.2528 63.7579 62.8312 64.3261 63.5497 64.3261C64.2682 64.3261 64.8466 63.7579 64.8466 63.0515C64.8466 62.345 64.2682 61.7764 63.5497 61.7764ZM15.5657 71.9766H20.7532V74.5262H15.5657V71.9766ZM57.0663 71.9766H62.2538V74.5262H57.0663V71.9766Z" fill="#1938A7"/>
</svg>
