<svg width="76" height="76" viewBox="0 0 76 76" fill="none" xmlns="http://www.w3.org/2000/svg">
<path d="M68.0902 58.5228H53.0312C51.0181 58.5257 49.0881 59.3289 47.6635 60.7565C46.239 62.1842 45.436 64.12 45.4302 66.1404V73.7029C45.4302 74.1421 45.604 74.5633 45.9134 74.8738C46.2229 75.1844 46.6426 75.3589 47.0802 75.3589C47.5178 75.3589 47.9375 75.1844 48.2469 74.8738C48.5563 74.5633 48.7302 74.1421 48.7302 73.7029V66.1404C48.7331 64.9975 49.1875 63.9024 49.9938 63.0952C50.8001 62.2881 51.8924 61.8348 53.0312 61.8348H68.0902C69.23 61.8348 70.3234 62.2877 71.1315 63.0946C71.9395 63.9014 72.3964 64.9965 72.4022 66.1404V73.7029C72.4022 74.1421 72.576 74.5633 72.8855 74.8738C73.1949 75.1844 73.6146 75.3589 74.0522 75.3589C74.4898 75.3589 74.9095 75.1844 75.2189 74.8738C75.5283 74.5633 75.7022 74.1421 75.7022 73.7029V66.1404C75.6964 64.1181 74.8918 62.1806 73.4649 60.7526C72.038 59.3247 70.1052 58.5228 68.0902 58.5228V58.5228Z" fill="#0096FF"/>
<path d="M49.2249 48.1231H49.8189C50.2138 50.6981 51.514 53.0462 53.4842 54.7425C55.4544 56.4388 57.9645 57.3713 60.5604 57.3713C63.1562 57.3713 65.6664 56.4388 67.6366 54.7425C69.6068 53.0462 70.907 50.6981 71.3019 48.1231H71.9509C72.3885 48.1231 72.8082 47.9487 73.1176 47.6381C73.4271 47.3275 73.6009 46.9063 73.6009 46.4671C73.6009 46.0279 73.4271 45.6067 73.1176 45.2962C72.8082 44.9856 72.3885 44.8111 71.9509 44.8111H71.3459C71.0864 43.1182 70.4334 41.5105 69.4397 40.118C68.4459 38.7255 67.1394 37.5875 65.6259 36.7961C65.5615 36.5372 65.4354 36.2979 65.2584 36.0989C65.0813 35.8999 64.8587 35.747 64.6097 35.6536C64.3607 35.5601 64.0928 35.5289 63.829 35.5625C63.5653 35.5962 63.3137 35.6937 63.0959 35.8467C61.4622 35.4491 59.7576 35.4491 58.1239 35.8467C57.9052 35.6939 57.6528 35.5966 57.3885 35.5631C57.1241 35.5295 56.8556 35.5608 56.6059 35.6541C56.3561 35.7474 56.1327 35.9 55.9545 36.0989C55.7764 36.2978 55.6489 36.537 55.5829 36.7961C54.0721 37.591 52.7678 38.73 51.7745 40.1219C50.7812 41.5137 50.1265 43.1197 49.8629 44.8111H49.2689C48.8313 44.8111 48.4116 44.9856 48.1022 45.2962C47.7927 45.6067 47.6189 46.0279 47.6189 46.4671C47.6189 46.9063 47.7927 47.3275 48.1022 47.6381C48.4116 47.9487 48.8313 48.1231 49.2689 48.1231H49.2249ZM55.4509 40.8367V41.3887C55.4509 41.8279 55.6247 42.2491 55.9342 42.5597C56.2436 42.8703 56.6633 43.0447 57.1009 43.0447C57.5385 43.0447 57.9582 42.8703 58.2676 42.5597C58.5771 42.2491 58.7509 41.8279 58.7509 41.3887V39.0814C59.9208 38.7869 61.145 38.7869 62.3149 39.0814V41.3887C62.3149 41.8279 62.4887 42.2491 62.7982 42.5597C63.1076 42.8703 63.5273 43.0447 63.9649 43.0447C64.4025 43.0447 64.8222 42.8703 65.1316 42.5597C65.4411 42.2491 65.6149 41.8279 65.6149 41.3887V40.8367C66.7747 41.8909 67.5815 43.279 67.9249 44.8111H53.1739C53.5042 43.2815 54.2999 41.8927 55.4509 40.8367ZM67.9249 48.1231C67.555 49.8144 66.6204 51.3281 65.276 52.4133C63.9316 53.4985 62.2582 54.0901 60.5329 54.0901C58.8076 54.0901 57.1342 53.4985 55.7898 52.4133C54.4454 51.3281 53.5108 49.8144 53.1409 48.1231H67.9249Z" fill="#0096FF"/>
<path d="M40.414 11.2718H37.246V7.79424C37.246 7.35504 37.0722 6.93383 36.7627 6.62327C36.4533 6.31271 36.0336 6.13824 35.596 6.13824H28.545V1.656C28.545 1.2168 28.3712 0.795591 28.0617 0.485031C27.7523 0.174471 27.3326 0 26.895 0C26.4574 0 26.0377 0.174471 25.7283 0.485031C25.4188 0.795591 25.245 1.2168 25.245 1.656V6.13824H18.205C17.7674 6.13824 17.3477 6.31271 17.0383 6.62327C16.7288 6.93383 16.555 7.35504 16.555 7.79424V11.2718H13.387C12.9494 11.2718 12.5297 11.4463 12.2203 11.7569C11.9108 12.0674 11.737 12.4886 11.737 12.9278V26.3304H1.65C1.21239 26.3304 0.79271 26.5049 0.483275 26.8154C0.17384 27.126 0 27.5472 0 27.9864V73.703C0 74.1422 0.17384 74.5634 0.483275 74.874C0.79271 75.1846 1.21239 75.359 1.65 75.359C2.08761 75.359 2.50729 75.1846 2.81673 74.874C3.12616 74.5634 3.3 74.1422 3.3 73.703V29.6424H11.737V73.703C11.737 74.1422 11.9108 74.5634 12.2203 74.874C12.5297 75.1846 12.9494 75.359 13.387 75.359C13.8246 75.359 14.2443 75.1846 14.5537 74.874C14.8632 74.5634 15.037 74.1422 15.037 73.703V14.5838H38.764V73.703C38.764 74.1422 38.9378 74.5634 39.2473 74.874C39.5567 75.1846 39.9764 75.359 40.414 75.359C40.8516 75.359 41.2713 75.1846 41.5807 74.874C41.8902 74.5634 42.064 74.1422 42.064 73.703V12.983C42.0714 12.761 42.0342 12.5397 41.9545 12.3324C41.8749 12.125 41.7546 11.9359 41.6006 11.7762C41.4466 11.6166 41.2622 11.4896 41.0584 11.403C40.8545 11.3163 40.6354 11.2717 40.414 11.2718V11.2718ZM33.946 11.2718H19.855V9.45024H33.946V11.2718Z" fill="#0096FF"/>
<path d="M33.9022 19.2867H19.9102V22.5987H33.9022V19.2867Z" fill="#0096FF"/>
<path d="M33.9022 26.3302H19.9102V29.6422H33.9022V26.3302Z" fill="#0096FF"/>
<path d="M33.9022 40.4172H19.9102V43.7292H33.9022V40.4172Z" fill="#0096FF"/>
<path d="M33.9022 33.3738H19.9102V36.6858H33.9022V33.3738Z" fill="#0096FF"/>
<path d="M33.9022 47.8804H19.9102V51.1924H33.9022V47.8804Z" fill="#0096FF"/>
<path d="M33.9022 61.9674H19.9102V65.2794H33.9022V61.9674Z" fill="#0096FF"/>
<path d="M33.9022 54.924H19.9102V58.236H33.9022V54.924Z" fill="#0096FF"/>
<path d="M9.11896 33.3738H5.91797V36.6858H9.11896V33.3738Z" fill="#0096FF"/>
<path d="M9.11896 40.4172H5.91797V43.7292H9.11896V40.4172Z" fill="#0096FF"/>
<path d="M9.11896 54.5154H5.91797V57.8274H9.11896V54.5154Z" fill="#0096FF"/>
<path d="M9.11896 47.4718H5.91797V50.7838H9.11896V47.4718Z" fill="#0096FF"/>
<path d="M9.11896 61.9674H5.91797V65.2794H9.11896V61.9674Z" fill="#0096FF"/>
</svg>
