<svg width="63" height="86" viewBox="0 0 63 86" fill="none" xmlns="http://www.w3.org/2000/svg">
<path d="M62.9473 26.6189C62.9473 22.3226 59.4509 18.8263 55.1547 18.8263H48.9324V4.78036C48.9324 2.14445 46.7879 0 44.152 0C41.4925 0 39.3288 2.14445 39.3288 4.78036V18.8263H23.6226V4.78036C23.6226 2.14445 21.4589 0 18.7994 0C16.1635 0 14.0191 2.14445 14.0191 4.78036V18.8263H7.79677C3.49902 18.8263 0.00415039 22.3226 0.00415039 26.6189C0.00415039 30.8915 3.42671 34.3643 7.66099 34.4395V44.232C7.66099 55.6936 15.827 65.2853 26.654 67.5154V85.5771H36.2576V67.5257C47.1067 65.3089 55.2919 55.7069 55.2919 44.232V34.4395C59.5232 34.3643 62.9473 30.8901 62.9473 26.6189ZM42.2806 4.78036C42.2806 3.78857 43.1366 2.95175 44.152 2.95175C45.1438 2.95175 45.9806 3.78857 45.9806 4.78036V18.8263H42.2806V4.78036ZM16.9708 4.78036C16.9708 3.77086 17.7914 2.95175 18.7994 2.95175C19.8133 2.95175 20.6708 3.78857 20.6708 4.78036V18.8263H16.9708V4.78036ZM33.3043 82.6254H29.6043V67.9109C30.2227 67.9596 30.844 68.0054 31.4757 68.0054C32.0926 68.0054 32.6992 67.9596 33.3043 67.9124V82.6254ZM31.4757 65.0551C19.9713 65.0551 10.6113 55.7143 10.6113 44.232V34.4543H52.3387V44.232C52.3402 55.7143 42.9802 65.0551 31.4757 65.0551ZM55.1547 31.5026H7.79677C5.12691 31.5026 2.9559 29.3124 2.9559 26.6189C2.9559 23.949 5.12839 21.778 7.79677 21.778H55.1547C57.8245 21.778 59.9955 23.9505 59.9955 26.6189C59.9955 29.3109 57.8245 31.5026 55.1547 31.5026Z" fill="#0096FF"/>
<path d="M30.2138 46.4385L33.5611 37.9551L30.8145 36.8704L25.8777 49.3902H32.7066L29.3888 57.9208L32.1398 58.9908L37.022 46.4385H30.2138Z" fill="#0096FF"/>
</svg>
